<svg xmlns="http://www.w3.org/2000/svg" viewBox="0 0 748 180" width="748" height="180">
	<style>
		tspan { white-space:pre }
		.shp0 { fill: #f5333f } 
	</style>
	<g >
		<g >
			<path class="shp0" d="M110.6,81.7c0,-0.1 0,-0.1 0,-0.1c0,0 0,0.1 0,0.1c0,-0.2 0,-0.3 0,-0.3v0c0.2,-3.1 0.2,-12.2 0,-46.9c0,0 0.8,-11.6 -7.9,-11.6c-8.7,0 -7.4,11.6 -7.4,11.6v38c0,0 0,2.4 -2.9,2.4c-2.9,0 -2.8,-2.4 -2.8,-2.4v-48.1c0,0 1.9,-13.5 -6.7,-13.5c-8.6,0 -7.7,6.3 -7.7,13c0,6.7 -1,43.3 -1,43.3c0,0 0.2,2.9 -3.4,2.9c-3.6,0 -3.4,-2.9 -3.4,-2.9v-54.4c0,0 1.9,-12 -7.7,-12c-9.6,0 -7.7,12.5 -7.7,12.5l-1,56.3c0,0 -0.1,3 -3.3,3c-3.2,0 -3,-3 -3,-3l-1,-51.5c0,0 1.4,-12 -7.7,-12c-9.1,0 -8.2,11.5 -8.2,11.5l-1.4,26.9c-0.2,21.9 -0.8,43.8 0.5,65.7c0.7,11.7 4.3,21.8 9.2,28.5c5.4,7.5 15.1,11 24.1,10.1c5.1,-0.4 9.8,-1.7 14.3,-3.9c14.7,-7.3 20.8,-25.2 13.5,-40c-5.5,-11.1 -18.9,-15.7 -30.1,-10.5c-0.5,0.2 -1,0.5 -1.4,0.8c-0.5,0.3 -1.1,0.6 -1.5,1c-0.4,0.3 -0.8,0.7 -1.3,1c-2.3,2 -4.1,4.5 -5,7.4c-1.5,4.4 -1.1,9.1 0.9,13.2c1.5,3.1 4.2,5.4 7.4,6.5c3.3,1.1 6.8,0.9 9.8,-0.7c5.9,-2.9 5.3,-9.4 4.7,-14.8h9.4l0.6,3c1.6,8.4 -2.7,16.8 -10.3,20.6c-5.4,2.7 -11.6,3.1 -17.3,1.2c-5.7,-1.9 -10.4,-6 -13.1,-11.4c-3.2,-6.5 -3.7,-13.8 -1.4,-20.7c2.3,-6.9 7.2,-12.4 13.6,-15.6c16.1,-8 35.8,-1.4 43.8,14.7c7.4,14.9 4.4,32.3 -6.1,44c-7.8,9.5 -21.6,14.1 -33.6,14.1c-11.5,0 -22.4,-5.3 -28.9,-14.3c-7.6,-10.5 -9.9,-24.1 -10.4,-33.7c-0.3,-5.7 -0.4,-15.9 -0.4,-16.4c-0.1,-1.4 0.3,-11.8 -7.8,-11.8c-9.3,0 -9.1,11.1 -9.1,11.1c0,0 -1.1,18.9 2.4,37.1c4.7,24.4 21.1,44.6 46.5,48.1c24.8,3.4 46.7,-5.5 56.4,-28.9c7.6,-17.9 3.9,-57.1 4.8,-68.2c0,0 -0.9,11.1 0,0c0,0 -0.9,11.1 0,0c0,0 -0.9,11.1 0,0c0,0 -0.9,11.1 0,0c0,0 -0.9,11.1 0,0z" />
		</g>
		<g >
			<path class="shp0" d="M174.9,42.1h11.4l34.9,96h-16.7l-5.2,-14.2h-37.5l-5,14.2h-16.7zM180.7,68.3l-13.9,41.5h27.6z" />
			<path class="shp0" d="M310.8,75.2c0,19 -15.1,33.3 -35.1,33.3h-20.1v29.6h-15.8v-96h35.9c20,0 35.1,14.2 35.1,33.1zM255.6,94.4h20.1c11.2,0 19.3,-8.1 19.3,-19.2c0,-9.5 -6.6,-19.1 -19.3,-19.1h-20.1z" />
			<path class="shp0" d="M329.5,138.1h58v-14h-42.2v-26.8h42.2v-13.9h-42.2v-27.3h42.2v-14h-58z" />
			<path class="shp0" d="M415.5,138.1h16.2v-96h-16.2z" />
			<path class="shp0" d="M511.2,105.8l21,32.3h-18.2l-19.4,-29.6h-17.8v29.6h-15.8v-96h36c19.9,0 35,14.2 35,33.1c0,13.8 -8.2,25.6 -20.8,30.6zM476.8,94.4h20.1c11.2,0 19.3,-8.1 19.3,-19.2c0,-9.5 -6.7,-19.1 -19.3,-19.1h-20.1z" />
			<path class="shp0" d="M731.6,42.1v67.9l-41.1,-67.2l-0.5,-0.7h-16.5v96h15.8v-67.9l41.6,67.9h16.5v-96z" />
			<path class="shp0" d="M607.7,39c-6.7,0 -13.3,1.5 -19.3,4.5c-8.7,4.3 -15.2,11.8 -18.3,21c-3.1,9.2 -2.4,19.1 1.9,27.8c3.6,7.3 9.9,12.8 17.6,15.4c7.7,2.6 16,2 23.3,-1.6c10.3,-5.1 16,-16.6 13.9,-27.9l-0.9,-4.7h-13.6l0.1,1.7c0.6,7.2 1.1,14.6 -5.9,18.1c-3.9,1.9 -8.3,2.2 -12.4,0.8c-4.1,-1.4 -7.4,-4.3 -9.3,-8.2c-2.6,-5.3 -3,-11.3 -1.1,-16.8c1.9,-5.6 5.8,-10.1 11.1,-12.7c4.1,-2 8.5,-3.1 13,-3.1c11.3,0 21.3,6.3 26.3,16.3c4.6,9.2 5.3,19.6 2,29.4c-3.3,9.8 -10.2,17.6 -19.3,22.2c-12.4,6.1 -21.7,6.8 -34.2,2.6c-9.3,-3.1 -16.4,-8.8 -23.2,-18.5l-0.4,-0.7h-16.6l1.2,2.3c8.2,15.3 19.8,25.5 34.5,30.4c6.6,2.2 15.3,3.4 17.5,3.4c12.7,0 18.5,-2.2 27.7,-6.7c26.1,-12.9 36.8,-44.7 23.9,-70.8c-7.7,-14.9 -22.7,-24.2 -39.5,-24.2z" />
		</g>
	</g>
</svg>