<?xml version="1.0" encoding="UTF-8"?> <svg xmlns="http://www.w3.org/2000/svg" id="Layer_1" data-name="Layer 1" viewBox="0 0 625.29 123.5"><defs><style> .cls-1 { fill: #b20e10; } .cls-2 { isolation: isolate; } .cls-3 { fill: #e9aa00; } .cls-4 { fill: none; stroke: #b20e10; stroke-width: .8px; } </style></defs><g id="Layer_2" data-name="Layer 2"><g id="Layer_1-2" data-name="Layer 1-2"><polygon class="cls-3" points="140.1 111.2 149.3 111.2 149.3 113.6 142.7 113.6 142.7 116.2 148.5 116.2 148.5 118.6 142.7 118.6 142.7 123.3 140.1 123.3 140.1 111.2"></polygon><path class="cls-3" d="M153.9,117.3h0c.4-3.6,3.6-6.1,7.2-5.7,3,.3,5.3,2.7,5.7,5.6h0c0,3.5-2.9,6.3-6.4,6.2h-.1c-3.4,0-6.3-2.6-6.4-6v-.2M164,117.2h0c0-2-1.6-3.7-3.6-3.8h-.1c-2,0-3.6,1.6-3.6,3.6h0c0,2.1,1.6,3.8,3.6,3.9h0c2,0,3.7-1.7,3.7-3.7h0"></path><path class="cls-3" d="M172,118.1v-6.9h2.7v6.9c0,1.9.9,2.9,2.6,2.9s2.6-.9,2.6-2.9v-6.9h2.6v6.8c0,3.7-2,5.5-5.3,5.5s-5.2-1.8-5.2-5.4"></path><polygon class="cls-3" points="188.3 111.2 190.7 111.2 196.4 118.7 196.4 111.2 199 111.2 199 123.3 196.8 123.3 190.9 115.6 190.9 123.3 188.3 123.3 188.3 111.2"></polygon><path class="cls-3" d="M205,111.2h4.7c3.8,0,6.4,2.6,6.4,6h0c0,3.4-2.6,6-6.4,6h-4.7v-12ZM209.7,120.9c1.9,0,3.6-1.4,3.7-3.3v-.3h0c.1-1.9-1.4-3.6-3.3-3.7h-2.4v7.3h2Z"></path><path class="cls-3" d="M224.8,111.1h2.5l5.2,12.2h-2.8l-1.1-2.7h-5.1l-1.1,2.7h-2.7l5.1-12.2h0ZM227.6,118.3l-1.6-4-1.6,4h3.2Z"></path><polygon class="cls-3" points="238.7 113.7 235 113.7 235 111.2 245 111.2 245 113.7 241.3 113.7 241.3 123.3 238.7 123.3 238.7 113.7"></polygon><rect class="cls-3" x="250.2" y="111.2" width="2.7" height="12.1"></rect><path class="cls-3" d="M258.4,117.3h0c.4-3.6,3.6-6.1,7.2-5.7,3,.3,5.3,2.7,5.7,5.6h0c-.4,3.6-3.7,6.1-7.3,5.6-3-.4-5.3-2.7-5.6-5.6M268.5,117.2h0c0-2-1.6-3.7-3.6-3.8h-.1c-2,0-3.6,1.6-3.6,3.6h0c0,2.1,1.6,3.8,3.6,3.9h.1c2,0,3.6-1.6,3.6-3.6v-.2"></path><polygon class="cls-3" points="276.7 111.2 279.2 111.2 284.8 118.7 284.8 111.2 287.4 111.2 287.4 123.3 285.2 123.3 279.3 115.6 279.3 123.3 276.7 123.3 276.7 111.2"></polygon><path class="cls-1" d="M164.8,42.2h-3.1v-17.5c0-6.2-3.5-9.9-9.2-9.9s-10,4.4-10.1,9.9v17.5h-3V12.7h3v5.1c2.2-3.7,6.2-6,10.5-5.8,7.2,0,11.9,4.7,11.9,12.1v18.1h0Z"></path><path class="cls-1" d="M188.3,42.9c-3.8,0-7.5-1.5-10.2-4.3-2.8-3-4.3-7-4.3-11.1h0c0-8.7,6.2-15.4,14-15.4s13.6,6.3,13.6,15.4,0,.8-.1,1.2h-24.3c.5,6.7,5.2,11.3,11.4,11.3s7.5-1.6,10-4.5h.1l2.1,1.8h-.1c-3.6,3.9-7.3,5.6-12.2,5.6M177,25.9h21.1c-.4-5.1-3.3-11.1-10.4-11.1s-10.1,4.7-10.7,11.1"></path><path class="cls-1" d="M213.6,51.4h-3V12.7h3v6.3c3.2-4.7,7.1-7,12-7,7,0,14.3,5.7,14.3,15.3h0c0,9.7-7.3,15.5-14.3,15.5s-9-2.3-12-6.8v15.4ZM225.3,14.9c-6.7.2-12.1,5.8-11.9,12.5h0c-.2,6.8,5.1,12.4,11.9,12.6,6.7,0,11.4-5.1,11.4-12.5h0c0-7.1-4.9-12.5-11.4-12.5"></path><path class="cls-1" d="M258.7,42.9c-5.7,0-11.4-3.2-11.4-9.3h0c0-6,4.9-9.7,12.9-9.7s6.5.4,9.6,1.2v-1.2c0-5.7-3.4-8.9-9.6-8.9s-6.3.9-9.1,2.4h-.1l-1.1-2.6h.1c3.2-1.6,6.8-2.4,10.4-2.5,4,0,7.2,1.1,9.3,3.2s3.1,4.8,3.1,8.4v18.3h-3v-4.7c-2.6,3.5-6.7,5.5-11.1,5.4M260,26.5c-5.9,0-9.5,2.6-9.5,6.8h0c0,4.3,4.2,6.6,8.4,6.6,6.2,0,11-3.8,11-8.9v-3.2c-3.2-.8-6.6-1.3-9.9-1.3"></path><rect class="cls-1" x="284.2" width="3" height="42.2"></rect><path class="cls-1" d="M146.1,98.6c-2,0-4-.4-5.8-1.3h-.1l1-2.6h.1c1.5.8,3.3,1.2,5,1.1,3.1,0,5-1.8,7.1-6.8l-14.1-29.4h3.5l12.1,26,10.5-26.1h3.4v.2l-12.8,30.4c-2.5,5.9-5.4,8.5-9.9,8.5"></path><path class="cls-1" d="M185,89.9c-8.3,0-15.1-6.8-15.1-15.1v-.3h0c0-4,1.5-7.9,4.3-10.8,2.8-3,6.8-4.7,10.9-4.7,8.3,0,15,6.6,15.1,14.9v.4h0c0,4-1.5,7.9-4.3,10.8-2.8,3.1-6.8,4.8-10.9,4.8M185,61.8c-6.7,0-11.9,5.5-11.9,12.5h0c0,7.1,5.3,12.6,12,12.6s11.9-5.4,11.9-12.4h0c0-7.1-5.3-12.6-12-12.6"></path><path class="cls-1" d="M218.3,89.9c-7.1,0-11.8-4.8-11.8-12.2v-18.1h3v17.6c0,6.1,3.6,9.9,9.2,9.9s10-4.4,10.1-9.9v-17.6h3v29.6h-3v-5.2c-2.1,3.8-6.2,6.1-10.5,5.9"></path><path class="cls-1" d="M250.6,89.7c-5.2,0-8.3-3.1-8.3-8.2v-19.1h-4.3v-2.8h4.3v-9.3h3v9.3h10.3v2.8h-10.3v18.9c0,3.7,1.9,5.5,5.8,5.5s2.9-.3,4.2-1h.2v2.8h-.1c-1.5.8-3.1,1.1-4.8,1.1"></path><path class="cls-1" d="M287.5,89.2h-3.1v-17.5c0-6.2-3.5-10-9.2-10s-10.1,4.5-10.1,10.1v17.4h-3v-42.2h3v17.8c2.2-3.7,6.2-6,10.5-5.8,7.2,0,11.9,4.7,11.9,12.1v18.1h0Z"></path><path class="cls-1" d="M69.4,7.8c0,4.3-3.4,7.8-7.7,7.9-4.3,0-7.8-3.4-7.9-7.7,0-4.3,3.4-7.8,7.7-7.9h0c4.3,0,7.7,3.3,7.8,7.6h0"></path><path class="cls-1" d="M114.5,52.1c-4.1,1.2-8.4-1.1-9.7-5.1-1.2-4.1,1-8.4,5.1-9.7s8.4,1,9.7,5h0c1.2,4.1-1,8.4-5.1,9.7"></path><path class="cls-1" d="M8.7,52.1c4.1,1.2,8.4-1.1,9.7-5.1,1.3-4.1-1-8.4-5.1-9.7s-8.4,1-9.7,5.1c-1.2,4.1,1.1,8.4,5.1,9.7"></path><path class="cls-1" d="M36.4,108.8c2.5-3.4,1.7-8.3-1.7-10.8h0c-3.5-2.5-8.3-1.7-10.8,1.8s-1.7,8.3,1.8,10.8,8.3,1.7,10.8-1.8"></path><path class="cls-3" d="M122.3,68.1c-4.2-4.3-9.2-7.8-14.6-10.3-3.6-2-6.4-5.3-7.7-9.3-1.1-3.5-.9-8.3.9-11.5,3.2-5.3,5.4-11.2,6.5-17.3.3-1.6-.8-3.2-2.4-3.6-1.7-.3-3.2.8-3.6,2.4-4.5,22.8-20.6,32.1-36.7,37.6.6-16.9,4.9-34.8,25.2-45.6,1.5-.8,2-2.6,1.2-4.1h0c-.7-1.5-2.5-2.1-4-1.3h0c-5.3,2.8-10.1,6.4-14.2,10.8-3,2.9-6.9,4.6-11.1,4.7-3.7,0-8.2-1.6-10.7-4.3-4.2-4.6-9.1-8.4-14.6-11.3-1.5-.8-3.4-.3-4.2,1.2s-.2,3.3,1.2,4.1h0c20.2,11,24.4,28.9,24.9,45.8-16.1-5.5-32.1-14.8-36.6-37.6-.4-1.6-1.9-2.7-3.6-2.4-1.6.4-2.7,2-2.4,3.6,1.2,6.1,3.4,11.9,6.5,17.3,1.9,3.2,2,8,.9,11.5-1.3,4-4.1,7.3-7.7,9.3-5.4,2.6-10.4,6-14.6,10.3-1.2,1.2-1.2,3.1,0,4.2h0c1.2,1.2,3.1,1.2,4.3,0,16.5-16.3,35-15,51.4-10.4-10.4,13.8-24.4,26.7-47.9,23.7-1.7-.2-3.2,1-3.3,2.7s1,3.2,2.7,3.3c6.1.9,12.4.7,18.4-.7,3.6-.7,8.2.7,11.2,2.8s5.9,6.5,6.3,10.3c.8,5.9,2.5,11.7,5.2,17.1.7,1.5,2.5,2.2,4,1.5h0c1.5-.8,2.1-2.6,1.4-4.1-10.4-21.2-2.8-38.5,6.9-52.7,9.8,14.2,17.4,31.6,7,52.8-.7,1.5,0,3.3,1.4,4.1,1.5.7,3.3,0,4.1-1.4,2.6-5.4,4.4-11.2,5.2-17.1.7-4.1,2.9-7.8,6.3-10.3,2.9-2.1,7.5-3.5,11.1-2.8,6.1,1.3,12.3,1.5,18.5.7,1.7-.2,2.9-1.7,2.7-3.4-.3-1.7-1.8-2.9-3.5-2.7-23.5,3.1-37.5-9.8-47.9-23.7,16.5-4.6,35-6,51.6,10.4,1.2,1.1,3.1,1.1,4.3,0,1.2-1.2,1.2-3.1,0-4.2h0"></path><path class="cls-1" d="M86.7,108.9c-2.5-3.4-1.7-8.3,1.7-10.8,3.4-2.5,8.3-1.7,10.8,1.7,2.5,3.4,1.7,8.2-1.7,10.7-3.4,2.5-8.2,1.8-10.8-1.7h0"></path><line class="cls-4" x1="310.6" y1="90" x2="310.6" y2=".5"></line></g></g><g class="cls-2"><g class="cls-2"><g class="cls-2"><path d="M341.73,39.52c.53-.04.61-.19.61-.76v-22.64h-6.65c-.42,0-.53.04-.61.42l-.61,3.3h-1.9v-5.85h22.11v5.85h-1.9l-.61-3.3c-.08-.38-.19-.42-.61-.42h-6.69v22.64c0,.53.04.68.61.72l4.18.3v1.71h-11.85v-1.71l3.91-.27Z"></path><path d="M357.35,39.56c.53-.08.61-.19.61-.76v-13.6c0-.42-.11-.68-.49-.8l-2.2-.72.3-1.6h4.33l.34,2.43c1.25-1.18,3.23-2.81,5.89-2.81.87,0,1.82.15,2.51.34v5.28l-1.94-.11-.49-2.89c-.04-.27-.08-.34-.46-.34-2.01,0-4.25,1.82-5.24,2.81v12.01c0,.61.04.72.61.76l3.42.27v1.67h-9.16v-1.71l1.98-.23Z"></path><path d="M382.7,38.92c-2.01,1.86-4.14,3.04-7.03,3.04-4.75,0-5.28-3.27-5.28-5.05,0-3.8,2.36-5.39,6.84-5.81l5.43-.49v-2.13c0-3.19-.65-4.6-4.33-4.6-2.54,0-4.48,0-4.52,3.08l-2.43-.3c0-4.48,4.18-4.94,6.99-4.94,5.21,0,6.84,1.52,6.84,6.69v10.41c0,.61.04.68.61.76l1.98.27v1.67h-4.64l-.34-2.55-.11-.04ZM373.05,36.6c0,2.28,1.14,3.23,3.12,3.23,2.62,0,5.09-1.71,6.5-3.57v-3.65l-4.98.46c-3.65.34-4.64,1.41-4.64,3.53Z"></path><path d="M405.57,39.56c.53-.08.61-.15.61-.72v-9.12c0-3.91-1.06-5.7-3.88-5.7s-5.47,1.79-6.61,2.85v11.93c0,.61.04.68.61.76l2.28.27v1.67h-8.02v-1.71l1.98-.23c.53-.08.61-.19.61-.76v-13.6c0-.42-.11-.68-.49-.8l-2.2-.72.3-1.6h4.29l.3,2.36.11.04c1.9-1.41,4.33-2.77,7.37-2.77,4.45,0,5.89,2.81,5.89,7.22v9.88c0,.61.04.68.61.76l2.28.27v1.67h-8.02v-1.71l1.98-.23Z"></path><path d="M424.88,24.29c-.53-.19-1.79-.46-3.15-.46-3.15,0-4.45,1.44-4.45,3.23,0,2.39,2.32,2.96,4.83,3.61,2.93.76,6.16,1.63,6.16,5.62,0,4.29-3.65,5.66-7.33,5.66-2.96,0-5.96-.87-6.65-1.25v-4.67l1.94.11.46,2.51c.04.23.08.38.42.49.53.19,2.01.68,4.1.68,2.77,0,4.6-1.03,4.6-3.31,0-2.47-2.2-3.08-4.63-3.69-3-.72-6.31-1.44-6.31-5.47s3.53-5.66,7.26-5.66c2.62,0,4.9.72,5.58,1.03v4.67l-1.94-.11-.46-2.51c-.04-.23-.08-.38-.42-.49Z"></path><path d="M434.07,39.56c.53-.04.61-.19.61-.76v-14.21c0-.23,0-.38-.3-.38h-2.81v-2.13h3.12v-3.23c0-4.18,1.98-6.46,6.5-6.46,2.93,0,5.24.72,5.24,4.18l-2.39.34c0-2.05-1.03-2.36-2.96-2.36-3.15,0-3.84,1.63-3.84,4.41v2.74c0,.27,0,.38.3.38h6.34v2.13h-6.65v14.55c0,.61.04.72.61.76l4.37.3v1.67h-10.68v-1.71l2.54-.23Z"></path><path d="M445.36,31.74c0-5.93,2.96-10.03,9.27-10.03s8.7,4.1,8.7,9.76c0,6.34-2.81,10.49-9.08,10.49s-8.89-4.26-8.89-10.22ZM460.71,31.74c0-5.21-1.98-7.79-6.16-7.79s-6.57,2.62-6.57,7.83,2.17,8.09,6.38,8.09,6.34-2.77,6.34-8.13Z"></path><path d="M468.84,39.56c.53-.08.61-.19.61-.76v-13.6c0-.42-.11-.68-.49-.8l-2.2-.72.3-1.6h4.33l.34,2.43c1.25-1.18,3.23-2.81,5.89-2.81.87,0,1.82.15,2.51.34v5.28l-1.94-.11-.49-2.89c-.04-.27-.08-.34-.46-.34-2.01,0-4.25,1.82-5.24,2.81v12.01c0,.61.04.72.61.76l3.42.27v1.67h-9.16v-1.71l1.98-.23Z"></path><path d="M508.7,39.56c.53-.08.61-.15.61-.72v-9.12c0-3.76-.68-5.7-3.65-5.7-2.28,0-4.41,1.22-5.81,2.24.11.72.15,1.56.15,2.47v10.07c0,.61.04.68.61.76l1.98.27v1.67h-7.6v-1.71l1.86-.23c.53-.08.61-.15.61-.72v-9.31c0-3.76-.46-5.51-3.27-5.51s-5.24,1.82-6.34,2.85v11.93c0,.61.04.68.61.76l2.28.27v1.67h-8.02v-1.71l1.98-.23c.53-.08.61-.19.61-.76v-13.6c0-.42-.11-.68-.49-.8l-2.2-.72.3-1.6h4.29l.3,2.36.11.04c1.56-1.22,3.95-2.77,7.14-2.77,2.47,0,3.8.87,4.52,2.47,1.82-1.29,4.1-2.47,6.95-2.47,4.45,0,5.62,2.81,5.62,7.22v9.88c0,.61.04.68.61.76l2.28.27v1.67h-8.02v-1.71l1.98-.23Z"></path><path d="M519.69,39.56c.53-.04.61-.19.61-.76v-13.6c0-.42-.11-.68-.49-.8l-2.2-.72.3-1.6h4.94v16.72c0,.61.04.68.61.76l2.66.27v1.67h-9.16v-1.71l2.74-.23ZM521.05,17.37c-1.29,0-2.05-.72-2.05-2.01s.76-2.01,2.05-2.01,2.05.72,2.05,2.01-.76,2.01-2.05,2.01Z"></path><path d="M543.7,39.56c.53-.08.61-.15.61-.72v-9.12c0-3.91-1.06-5.7-3.88-5.7s-5.47,1.79-6.61,2.85v11.93c0,.61.04.68.61.76l2.28.27v1.67h-8.02v-1.71l1.98-.23c.53-.08.61-.19.61-.76v-13.6c0-.42-.11-.68-.49-.8l-2.2-.72.3-1.6h4.29l.3,2.36.11.04c1.9-1.41,4.33-2.77,7.37-2.77,4.45,0,5.89,2.81,5.89,7.22v9.88c0,.61.04.68.61.76l2.28.27v1.67h-8.02v-1.71l1.98-.23Z"></path><path d="M568.74,28.47c0,4.6-3.38,7.11-7.83,7.11-1.33,0-2.47-.19-3.31-.53l-1.79,3.57,6.72.49c5.51.42,7.9.99,7.9,5.02,0,3.61-3.04,5.93-9.65,5.93s-8.59-1.79-8.59-4.67c0-1.94,1.03-3.23,2.58-4.71-1.22-.27-1.79-.72-1.79-1.71,0-.61.3-1.18.76-1.86l1.86-2.93c-1.56-.95-2.66-2.81-2.66-5.32,0-4.29,3.12-7.14,8.02-7.14,1.29,0,2.47.15,3.27.38h6.61v2.09l-3.53.27c.84,1.06,1.41,2.2,1.41,4.03ZM554.91,44.92c0,2.24,2.51,2.81,6.65,2.81.76,0,1.44-.08,2.09-.15,2.55-.38,4.07-1.48,4.07-3.42s-1.52-2.54-4.22-2.7l-6.23-.38c-1.03.91-2.36,2.28-2.36,3.84ZM561.03,23.79c-3.23,0-5.47,1.6-5.47,4.9,0,2.58,1.44,4.71,5.36,4.71,3.27,0,5.32-1.98,5.32-4.79,0-3.08-1.86-4.83-5.21-4.83Z"></path></g></g><g class="cls-2"><g class="cls-2"><path d="M336.45,87.26c.53-.08.61-.19.61-.76v-22.07c0-.57-.08-.68-.61-.76l-2.39-.27v-1.71h9.31v1.71l-3.15.3c-.57.04-.61.19-.61.72v22.64h10.79c.42,0,.53-.04.61-.42l.61-3.31h1.9v5.85h-19.45v-1.67l2.39-.27Z"></path><path d="M358.65,87.26c.53-.04.61-.19.61-.76v-13.6c0-.42-.11-.68-.49-.8l-2.2-.72.3-1.6h4.94v16.72c0,.61.04.68.61.76l2.66.27v1.67h-9.16v-1.71l2.74-.23ZM360.01,65.07c-1.29,0-2.05-.72-2.05-2.02s.76-2.01,2.05-2.01,2.05.72,2.05,2.01-.76,2.02-2.05,2.02Z"></path><path d="M367.08,71.8l-1.63-.34.38-1.67h7.18v1.67l-2.7.3,5.66,15.08,5.66-15.08-2.58-.3.38-1.67h6.57v1.67l-1.22.23c-.53.12-.76.19-.95.65l-6.5,16.87h-2.89l-6.57-16.76c-.19-.46-.34-.53-.8-.64Z"></path><path d="M396.19,89.66c-6.73,0-8.85-4.52-8.85-10.26,0-6.8,3.72-9.99,8.36-9.99s7.64,2.47,7.64,8.97c0,.53-.04,1.06-.08,1.63h-13.26c.11,4.33,1.79,7.33,6.38,7.33,2.36,0,3.57-.42,5.4-1.41l.95,2.13c-1.71.99-3.88,1.6-6.54,1.6ZM395.73,71.65c-2.89,0-5.32,1.6-5.66,6.31h10.64c-.08-4.71-2.32-6.31-4.98-6.31Z"></path><path d="M416.97,71.99c-.53-.19-1.79-.46-3.15-.46-3.15,0-4.45,1.44-4.45,3.23,0,2.39,2.32,2.96,4.83,3.61,2.92.76,6.16,1.63,6.16,5.62,0,4.29-3.65,5.66-7.33,5.66-2.96,0-5.97-.88-6.65-1.25v-4.67l1.94.11.46,2.51c.04.23.08.38.42.49.53.19,2.01.68,4.1.68,2.77,0,4.6-1.03,4.6-3.3,0-2.47-2.2-3.08-4.64-3.69-3-.72-6.31-1.44-6.31-5.47s3.53-5.66,7.26-5.66c2.62,0,4.9.72,5.58,1.03v4.67l-1.94-.11-.46-2.51c-.04-.23-.08-.38-.42-.49Z"></path><path d="M434.91,87.26c.53-.04.61-.19.61-.76v-14.21c0-.23,0-.38-.3-.38h-2.81v-2.13h3.12v-3.23c0-4.18,1.98-6.46,6.5-6.46,2.93,0,5.24.72,5.24,4.18l-2.39.34c0-2.05-1.03-2.36-2.96-2.36-3.15,0-3.84,1.63-3.84,4.41v2.73c0,.27,0,.38.3.38h6.34v2.13h-6.65v14.55c0,.61.04.72.61.76l4.37.3v1.67h-10.68v-1.71l2.54-.23Z"></path><path d="M446.2,79.44c0-5.93,2.96-10.03,9.27-10.03s8.7,4.1,8.7,9.77c0,6.34-2.81,10.49-9.08,10.49s-8.89-4.26-8.89-10.22ZM461.55,79.44c0-5.21-1.98-7.79-6.16-7.79s-6.57,2.62-6.57,7.83,2.17,8.09,6.38,8.09,6.35-2.77,6.35-8.13Z"></path><path d="M469.68,87.26c.53-.08.61-.19.61-.76v-13.6c0-.42-.11-.68-.49-.8l-2.2-.72.3-1.6h4.33l.34,2.43c1.25-1.18,3.23-2.81,5.89-2.81.87,0,1.82.15,2.51.34v5.28l-1.94-.11-.49-2.89c-.04-.27-.08-.34-.46-.34-2.01,0-4.26,1.82-5.24,2.81v12.01c0,.61.04.72.61.76l3.42.27v1.67h-9.16v-1.71l1.98-.23Z"></path><path d="M506.88,85.17c0,4.26-2.74,7.18-8.05,7.18-3.46,0-6.31-1.33-7.83-3.15l1.67-1.79c1.6,1.67,3.46,2.62,6.27,2.62,2.66,0,5.28-1.03,5.28-4.79,0-3.19-2.13-4.75-5.77-4.75-.84,0-1.63.08-2.62.23v-2.17l2.36-.23c3.65-.34,5.43-2.32,5.43-4.9,0-2.43-1.25-4.14-4.6-4.14-3.08,0-4.79.76-4.79,4.18l-2.43-.3c0-5.05,3.91-6.04,7.37-6.04,5.13,0,7.1,2.66,7.1,5.93,0,2.93-1.52,5.05-4.37,6.08v.15c3.38.65,4.98,2.58,4.98,5.89Z"></path><path d="M518.13,76.55c4.45,0,7.37,2.77,7.37,7.68,0,4.52-3,8.13-8.32,8.13-3.46,0-6.46-1.22-8.25-3.12l1.71-1.9c1.63,1.75,3.76,2.66,6.57,2.66,2.66,0,5.62-1.56,5.62-5.66s-2.81-5.55-5.13-5.55-3.84.91-5.09,1.82l-1.98-.91.76-12.01h10.14c.42,0,.49-.04.61-.42l.53-2.05,1.63-.11v4.79h-10.71l-.53,8.13c1.29-.87,3.15-1.48,5.05-1.48Z"></path><path d="M545.6,87.26c.53-.04.61-.19.61-.76v-8.09l-7.64-13.98c-.19-.34-.46-.53-.91-.65l-1.71-.42.38-1.67h7.52v1.67l-2.81.34,6.5,12.35,6.35-12.35-2.74-.34.38-1.67h7.07v1.67l-1.6.42c-.38.11-.72.3-.95.72l-7.29,13.79v8.17c0,.61.04.72.61.76l3.69.3v1.67h-10.98v-1.67l3.53-.27Z"></path><path d="M565.55,89.66c-6.73,0-8.85-4.52-8.85-10.26,0-6.8,3.72-9.99,8.36-9.99s7.64,2.47,7.64,8.97c0,.53-.04,1.06-.08,1.63h-13.26c.11,4.33,1.79,7.33,6.38,7.33,2.36,0,3.57-.42,5.4-1.41l.95,2.13c-1.71.99-3.88,1.6-6.54,1.6ZM565.1,71.65c-2.89,0-5.32,1.6-5.66,6.31h10.64c-.08-4.71-2.32-6.31-4.98-6.31Z"></path><path d="M588.09,86.62c-2.01,1.86-4.14,3.04-7.03,3.04-4.75,0-5.28-3.27-5.28-5.05,0-3.8,2.36-5.39,6.84-5.81l5.43-.49v-2.13c0-3.19-.65-4.6-4.33-4.6-2.55,0-4.48,0-4.52,3.08l-2.43-.3c0-4.48,4.18-4.94,6.99-4.94,5.21,0,6.84,1.52,6.84,6.69v10.41c0,.61.04.68.61.76l1.98.27v1.67h-4.64l-.34-2.54-.11-.04ZM578.44,84.3c0,2.28,1.14,3.23,3.12,3.23,2.62,0,5.09-1.71,6.5-3.57v-3.65l-4.98.46c-3.65.34-4.63,1.4-4.63,3.53Z"></path><path d="M597.93,87.26c.53-.08.61-.19.61-.76v-13.6c0-.42-.11-.68-.49-.8l-2.2-.72.3-1.6h4.33l.34,2.43c1.25-1.18,3.23-2.81,5.89-2.81.87,0,1.82.15,2.51.34v5.28l-1.94-.11-.49-2.89c-.04-.27-.08-.34-.46-.34-2.01,0-4.26,1.82-5.24,2.81v12.01c0,.61.04.72.61.76l3.42.27v1.67h-9.16v-1.71l1.98-.23Z"></path><path d="M621.91,71.99c-.53-.19-1.79-.46-3.15-.46-3.15,0-4.45,1.44-4.45,3.23,0,2.39,2.32,2.96,4.83,3.61,2.92.76,6.16,1.63,6.16,5.62,0,4.29-3.65,5.66-7.33,5.66-2.96,0-5.97-.88-6.65-1.25v-4.67l1.94.11.46,2.51c.04.23.08.38.42.49.53.19,2.01.68,4.1.68,2.77,0,4.6-1.03,4.6-3.3,0-2.47-2.2-3.08-4.64-3.69-3-.72-6.31-1.44-6.31-5.47s3.53-5.66,7.26-5.66c2.62,0,4.9.72,5.58,1.03v4.67l-1.94-.11-.46-2.51c-.04-.23-.08-.38-.42-.49Z"></path></g></g></g></svg> 